PathFileType	4	(X/Y/Z)	C:/Users/opensim2020/Desktop/walking_exp_matlab/subject02_walking13_straight_03.trc																																																																																																																									
DataRate	CameraRate	NumFrames	NumMarkers	Units	OrigDataRate	OrigDataStartFrame	OrigNumFrames																																																																																																																					
100	100	4	41	mm	100	1328	129																																																																																																																					
Frame#	Time	LFHD			RFHD			LBHD			RBHD			C7			T10			CLAV			STRN			RBAK			LSHO			LUPA			LELB			LFRM			LWRA			LWRB			LFIN			RSHO			RUPA			RELB			RFRM			RWRA			RWRB			RFIN			LASI			RASI			LPSI			RPSI			LTHI			LKNE			LTIB			LANK			LHEE			LTOE			RTHI			RKNE			RTIB			RANK			RHEE			RTOE			*39			*40		
		X1	Y1	Z1	X2	Y2	Z2	X3	Y3	Z3	X4	Y4	Z4	X5	Y5	Z5	X6	Y6	Z6	X7	Y7	Z7	X8	Y8	Z8	X9	Y9	Z9	X10	Y10	Z10	X11	Y11	Z11	X12	Y12	Z12	X13	Y13	Z13	X14	Y14	Z14	X15	Y15	Z15	X16	Y16	Z16	X17	Y17	Z17	X18	Y18	Z18	X19	Y19	Z19	X20	Y20	Z20	X21	Y21	Z21	X22	Y22	Z22	X23	Y23	Z23	X24	Y24	Z24	X25	Y25	Z25	X26	Y26	Z26	X27	Y27	Z27	X28	Y28	Z28	X29	Y29	Z29	X30	Y30	Z30	X31	Y31	Z31	X32	Y32	Z32	X33	Y33	Z33	X34	Y34	Z34	X35	Y35	Z35	X36	Y36	Z36	X37	Y37	Z37	X38	Y38	Z38	X39	Y39	Z39	X40	Y40	Z40	X41	Y41	Z41
																																																																																																																												
17	0.16	-446.66846	1733.20654	-1032.88147	-471.65668	1708.2926	-893.19202	-577.82892	1666.41553	-1066.87085	-613.80402	1640.63391	-930.49896	-648.77765	1522.11719	-991.57971	-709.18475	1248.33801	-986.39185	-511.53168	1450.13428	-1010.54541	-464.2179	1276.68652	-1000.41278	-707.15515	1349.45178	-921.32056	-595.87244	1491.73999	-1173.24231	-665.99243	1306.37903	-1250.06018	-706.77277	1171.13721	-1257.83459	-729.74707	1038.15637	-1270.92432	-702.80896	903.03107	-1236.60815	-748.06403	914.8855	-1270.02124	-748.2041	846.29626	-1263.92151	-563.17358	1490.11743	-811.18622	-564.56744	1299.70605	-721.54376	-522.74915	1155.52295	-705.61328	-457.66949	1051.78064	-702.85913	-376.28488	949.67511	-741.72491	-413.8595	928.39447	-703.64087	-356.7692	884.72955	-711.14679	-489.39645	983.54169	-1121.85474	-507.44955	959.42987	-869.03699	-701.14307	1035.51831	-1054.8042	-711.9585	1032.87207	-940.0556	-494.70267	692.00488	-1218.44287	-455.52908	495.76453	-1200.43628	-474.27264	302.27988	-1205.79529	-417.63043	81.73821	-1198.7146	-434.29886	49.24911	-1142.08679	-266.61374	70.05053	-1238.29065	-622.65839	655.29004	-831.26514	-656.68573	450.20883	-888.78082	-727.38037	274.80609	-889.17212	-779.56531	89.75506	-937.92157	-823.36957	37.69643	-993.78503	-633.24567	34.79456	-929.19476	-558.5224	1799.65356	-956.68591	NaN	NaN	NaN
18	0.17	-434.70541	1731.11047	-1034.74792	-459.80722	1706.66309	-895.08771	-565.58002	1663.85681	-1068.47815	-602.27655	1638.48718	-932.6991	-636.50366	1519.69751	-993.49414	-696.74365	1245.87012	-988.98004	-498.98914	1447.8822	-1012.18414	-451.65506	1274.47974	-1001.73718	-695.2652	1347.2583	-923.47095	-583.12708	1489.2063	-1175.08777	-655.16125	1304.46033	-1251.29248	-697.57574	1169.61328	-1257.49329	-723.48621	1037.19287	-1269.64905	-700.25031	901.47546	-1233.66956	-744.48041	914.13501	-1267.93054	-747.05359	845.72577	-1260.7843	-551.16913	1488.12036	-812.9917	-550.49274	1298.26221	-723.08923	-507.71463	1154.34998	-706.19629	-440.00424	1052.03601	-704.38501	-355.80386	952.61212	-743.66785	-393.01459	929.91211	-705.92358	-334.14499	888.14685	-713.68073	-475.93149	980.74286	-1123.3385	-496.12582	957.49988	-869.73926	-688.24811	1032.35315	-1057.49597	-700.34009	1029.90735	-943.36383	-482.47952	687.93689	-1219.09863	-440.97375	492.89072	-1201.05188	-449.84647	299.02374	-1207.86096	-381.75946	81.22211	-1202.71887	-397.48074	47.81409	-1146.69104	-229.57129	77.03903	-1241.25098	-615.23315	654.33081	-832.52832	-652.37164	449.83759	-889.80615	-725.40063	275.26749	-890.20355	-779.16888	90.43037	-938.74298	-822.89246	38.15718	-994.88879	-633.18628	34.62799	-928.99866	-546.85669	1797.49902	-958.88953	NaN	NaN	NaN
19	0.18	-422.59656	1728.84985	-1036.68115	-447.91724	1704.24768	-896.93878	-553.45886	1661.37061	-1070.87585	-589.8125	1635.8385	-934.44482	-624.17334	1517.08887	-995.40515	-684.17419	1243.32617	-991.45959	-486.4101	1445.52112	-1013.90479	-438.95901	1272.12866	-1003.13348	-683.18463	1344.90186	-925.58417	-570.2558	1486.63306	-1176.99756	-644.25897	1302.21606	-1251.96118	-688.10632	1167.94958	-1257.22021	-716.6557	1036.02917	-1268.67615	-697.08563	900.05609	-1231.19714	-740.27472	913.50757	-1266.36877	-745.2207	845.24304	-1258.01013	-538.7085	1485.48145	-815.00946	-536.70825	1296.49524	-724.21765	-492.58218	1153.01843	-706.85626	-422.57962	1052.16138	-706.00769	-336.21768	955.30847	-746.30896	-372.48508	931.4325	-708.22931	-312.50082	891.52869	-716.31982	-462.48566	977.94214	-1124.84949	-484.20746	955.61584	-870.79077	-675.17938	1029.021	-1060.10388	-688.47833	1026.72705	-946.65265	-470.49753	683.91766	-1220.27002	-426.27344	490.01614	-1201.77185	-426.24213	296.36032	-1209.99414	-347.84647	81.92159	-1206.65588	-362.04196	46.55353	-1150.49353	-194.93343	84.20004	-1243.74109	-608.18945	653.44153	-833.71887	-647.79333	449.27567	-890.67365	-723.43939	275.86823	-891.39325	-778.58069	91.26244	-939.76923	-822.40125	39.44382	-996.1535	-633.02484	34.36467	-928.71014	-534.92395	1795.00439	-961.0224	NaN	NaN	NaN
20	0.19	-410.42947	1726.53821	-1038.64709	-436.18582	1701.79126	-899.16278	-541.13324	1658.95911	-1072.97461	-577.74164	1633.36438	-936.53162	-611.85309	1514.37427	-997.3454	-671.52209	1240.71887	-993.94171	-473.74222	1443.02295	-1015.62115	-426.26965	1269.72656	-1004.57983	-669.99152	1341.67944	-927.92322	-557.36169	1483.85974	-1178.69507	-633.10742	1300.01709	-1253.09644	-678.21667	1166.12244	-1257.27905	-709.35736	1034.87622	-1268.08557	-693.67816	898.49182	-1228.94104	-735.34467	912.83081	-1265.12952	-742.69604	844.77411	-1255.73389	-526.84924	1483.18494	-816.98724	-523.38489	1294.67249	-725.8114	-477.84485	1151.53662	-707.55444	-405.16895	1052.30798	-707.29547	-316.56229	957.80981	-748.03827	-352.21072	932.83282	-710.5462	-291.33029	894.65332	-718.84595	-448.79712	975.25677	-1126.44373	-472.02466	953.70062	-871.92975	-662.05542	1025.64233	-1062.59485	-676.82825	1023.63892	-949.75818	-458.91452	680.21735	-1221.87463	-411.32495	487.19867	-1202.47974	-403.20563	293.99072	-1211.74817	-315.94846	82.91409	-1210.02759	-329.8602	46.94833	-1154.48242	-162.46541	91.19465	-1244.97937	-599.89331	652.42999	-834.9635	-642.75183	448.50989	-892	-721.25885	276.58887	-892.76117	-778.14502	92.0545	-940.96301	-821.73267	40.68598	-997.73242	-632.76556	34.12611	-928.49847	-523.23645	1792.7312	-963.34674	NaN	NaN	NaN
